<?xml version="1.0" encoding="UTF-8"?>
<svg id="_레이어_1" data-name="레이어 1" xmlns="http://www.w3.org/2000/svg" viewBox="0 0 295.53 418.12">
  <defs>
    <style>
      .cls-1 {
        fill: #f5c9a8;
      }

      .cls-1, .cls-2, .cls-3, .cls-4, .cls-5, .cls-6 {
        stroke-width: 0px;
      }

      .cls-2 {
        fill: #9a5a6a;
      }

      .cls-3 {
        fill: #f49e92;
      }

      .cls-4 {
        fill: #2e3649;
      }

      .cls-7 {
        fill: none;
        stroke: #2e3649;
        stroke-miterlimit: 10;
        stroke-width: 4px;
      }

      .cls-5 {
        fill: #f9b761;
      }

      .cls-6 {
        fill: #ffcd7f;
      }
    </style>
  </defs>
  <polygon class="cls-4" points="196.63 42.11 206.26 141.9 67.51 144.42 88.23 39.52 196.63 42.11"/>
  <ellipse class="cls-1" cx="140.71" cy="66.78" rx="48.27" ry="43.07" transform="translate(47.48 191.54) rotate(-78.62)"/>
  <rect class="cls-1" x="124.6" y="109.07" width="32.22" height="40.09"/>
  <g>
    <path class="cls-1" d="m282.84,395.88c-6.04-9-14.72-15.81-21.81-20.34-6.1-3.9-13.83-.27-15.69,7.36l-.43,1.75c-.56,2.29-1.71,4.35-3.3,5.92h0c-5.22,5.13-4.85,14.4.76,18.99l7.62,6.23c1.86,1.53,4.13,2.32,6.43,2.32,11.05.03,18.08-1.72,22.55-4.06,6.11-3.19,7.93-12.12,3.87-18.17Z"/>
    <path class="cls-1" d="m22.07,415.7c10.33-.09,20.52-3.76,28.05-7.35,6.49-3.1,8.2-11.97,3.49-18.01l-1.08-1.39c-1.42-1.82-2.31-4.02-2.58-6.32h0c-.88-7.54-8.13-12.58-14.85-10.32l-9.14,3.08c-2.24.75-4.14,2.28-5.48,4.29-6.42,9.67-9.15,16.85-9.96,22.12-1.11,7.2,4.61,13.96,11.56,13.9Z"/>
    <path class="cls-2" d="m261.25,371.77l-219.54-113.8c-14.28-6.72-31.72,1.89-38.75,19.14h0c-7.03,17.25-1.09,36.86,13.19,43.58l217.24,86.87c14.28,6.72,27.86-35.78,27.86-35.78Z"/>
  </g>
  <path class="cls-2" d="m34.29,371.77l219.54-113.8c14.28-6.72,31.72,1.89,38.75,19.14h0c7.03,17.25,1.09,36.86-13.19,43.58l-217.24,86.87c-14.28,6.72-27.86-35.78-27.86-35.78Z"/>
  <g>
    <path class="cls-2" d="m82.77,134.64l41-8s14,16,34,0l41,8s-61.03,16.84-116,0Z"/>
    <path class="cls-3" d="m244.31,191.41l-45.55-56.76s-29.05,6-58,6-58-6-58-6c8.18,0,10.3,108.63,9.18,117.37-.61,4.78-7.43,50.63-9.14,50.63.01,0,115.8,0,115.8,0-1.41-8.39-2.72-16.8-4.08-25.2l5.35,5.66,45.43-79.3c2.26-3.94,1.86-8.86-1-12.39Zm-53.71,63.07c-.15-.82-.3-1.63-.45-2.45-4.78-25.35-.1-48.21,3.01-73.46.13-1.04.26-2.08.39-3.12l19.9,29.7-22.86,49.32Z"/>
  </g>
  <path class="cls-3" d="m82.77,134.64l-45.89,56.76c-2.86,3.53-3.25,8.45-1,12.39l45.43,79.3,15.12-16-28.71-61.94,47.05-60.52-32-10Z"/>
  <g>
    <polygon class="cls-6" points="219.17 305.86 60.22 305.86 59.16 305.86 59.16 191.4 219.17 191.4 219.17 305.86"/>
    <rect class="cls-5" x="59.16" y="305.86" width="160.01" height="3.85"/>
  </g>
  <path class="cls-4" d="m87.35,66.86s24.05-20.37,26.4-33.52c0,0,59.28,34.93,71.23,27.74,0,0,8.22,8.28,3.4,21.34,0,0,32.68-67.57-30.77-78.36,0,0-76.86-27.92-70.26,62.8Z"/>
  <ellipse class="cls-1" cx="187.63" cy="76.08" rx="8.3" ry="5.83" transform="translate(97.51 257.38) rotate(-85.64)"/>
  <ellipse class="cls-1" cx="93.61" cy="75.02" rx="5.84" ry="8.29" transform="translate(-9.8 14.21) rotate(-8.25)"/>
  <g>
    <path class="cls-7" d="m151.7,245.52c-.7-.69-1.1-1.64-1.1-2.62-.02-7.34-4.51-13.45-10.16-13.22h0c-5.64-.23-10.14,5.73-10.16,13.07,0,.99-.4,1.93-1.1,2.62-11.05,10.36-4.64,25.67,11.26,25.27h0c15.9.41,22.31-14.75,11.26-25.11Z"/>
    <path class="cls-7" d="m121.09,225.81s8.3,10.76,15.48,1.29c-5.48-10-15.48-1.29-15.48-1.29Z"/>
    <path class="cls-4" d="m140.44,231.68c-.94,0-1.78-.67-1.96-1.63-1.52-7.98,5.51-12.77,5.81-12.97.92-.61,2.16-.36,2.77.56.61.92.36,2.16-.55,2.77-.22.15-5.13,3.55-4.11,8.9.21,1.08-.51,2.13-1.59,2.34-.13.02-.25.04-.38.04Z"/>
    <path class="cls-4" d="m145.29,266.69c-.74,0-1.45-.41-1.8-1.12-.48-.99-.07-2.18.91-2.67h0c.23-.11,5.55-2.83,5.26-8.27-.06-1.1.79-2.05,1.89-2.11,1.08-.06,2.05.78,2.11,1.89.44,8.12-7.17,11.92-7.49,12.08-.28.14-.58.2-.88.2Z"/>
  </g>
  <polyline class="cls-2" points="198.77 134.64 144.77 162.64 138.77 139.64 131.77 162.64 82.77 134.64"/>
</svg>